<svg id="Layer_1" data-name="Layer 1" xmlns="http://www.w3.org/2000/svg" viewBox="0 0 200.6 103.2"><title>
  logo-green-without margin</title>
  <path
    d="M28.8,185.6a6.4,6.4,0,0,1-7.4,3.2,10.32,10.32,0,0,0-3-.4c-2.1,0-4.9,1.2-4.9,3.7s3.1,3.5,5.1,4.2l2.9.9c6.1,1.8,10.8,4.9,10.8,12,0,4.4-1,8.8-4.5,11.8a19.11,19.11,0,0,1-12.4,4.1,26.7,26.7,0,0,1-15.4-5V220l4.9-9.1c2.8,2.5,6.2,4.5,10.1,4.5,2.7,0,5.5-1.3,5.5-4.4s-4.5-4.3-6.9-5c-7.2-2-11.9-3.9-11.9-12.4,0-8.9,6.3-14.7,15.1-14.7a29.76,29.76,0,0,1,13.7,3.6v.1Z"
    transform="translate(0 -178.9)" style="fill:#06df70"/>
  <path
    d="M45,197.8h0c2.5-3.6,5.5-4.8,9.6-4.8,8,0,11.2,5.1,11.2,12.4v12.1a6.25,6.25,0,0,1-6.2,6.3H55.3c-.1,0-.1,0-.1-.1V209.2c0-2.9.5-7.9-4.8-7.9-4.3,0-5.5,3.2-5.5,6.9v9.2a6.25,6.25,0,0,1-6.2,6.3H34.4c-.1,0-.1,0-.1-.1V193.9c0-.1,0-.1.1-.1H44.8c.1,0,.1,0,.1.1l.1,3.9h0"
    transform="translate(0 -178.9)" style="fill:#06df70"/>
  <path
    d="M96.2,223.8H92c-.1,0-.1,0-.1-.1v-3.2c0-.1,0-.1-.1-.1h-.1c-1.9,2.9-5.5,4.3-9,4.3-8.8,0-15.1-7.4-15.1-15.9s6.1-15.9,14.9-15.9a12.07,12.07,0,0,1,9.1,3.7c0,.1.1,0,.1,0V194c0-.1,0-.1.1-.1h10.4c.1,0,.1,0,.1.1v23.5a5.93,5.93,0,0,1-5.5,6.3h-.6M78.7,208.9a6.37,6.37,0,0,0,6,6.7h.8a6.38,6.38,0,0,0,6.8-5.9v-.8a6.45,6.45,0,0,0-6.1-6.7h-.7a6.48,6.48,0,0,0-6.8,6.1v.6"
    transform="translate(0 -178.9)" style="fill:#06df70"/>
  <path
    d="M116.4,197.4h0c.1,0,.1-.1,0,0a10.78,10.78,0,0,1,9.1-4.4c8.9,0,15.1,7.4,15.1,16s-6.1,15.8-14.9,15.8a12.23,12.23,0,0,1-9.2-3.8h0v9.1a6.25,6.25,0,0,1-6.2,6.3h-4.4V194h10.6l-.1,3.4h0m-.4,11.5a6.37,6.37,0,0,0,6,6.7h.8a6.38,6.38,0,0,0,6.8-5.9v-.8a6.45,6.45,0,0,0-6.1-6.7h-.7a6.48,6.48,0,0,0-6.8,6.1v.6"
    transform="translate(0 -178.9)" style="fill:#06df70"/>
  <path
    d="M153.2,197.4h0a10.78,10.78,0,0,1,9.1-4.4c8.9,0,15.1,7.4,15.1,16s-6.1,15.8-14.9,15.8a12.45,12.45,0,0,1-9.1-3.7c0-.1-.1,0-.1.1v8.9a6.25,6.25,0,0,1-6.2,6.3h-4.3c-.1,0-.1,0-.1-.1V194c0-.1,0-.1.1-.1h10.4c.1,0,.1,0,.1.1h0l-.1,3.4h0m-.4,11.5a6.37,6.37,0,0,0,6,6.7h.8a6.38,6.38,0,0,0,6.8-5.9v-.8a6.45,6.45,0,0,0-6.1-6.7h-.7a6.48,6.48,0,0,0-6.8,6.1v.6"
    transform="translate(0 -178.9)" style="fill:#06df70"/>
  <path d="M188.4,208.1h-6l7.2-28.1c0-.1,0-.1.1-.1h10.8c.1,0,.1,0,.1.1h0l-6,23.3a6.42,6.42,0,0,1-6.2,4.8"
        transform="translate(0 -178.9)" style="fill:#06df70"/>
  <path
    d="M179.2,218.1a6.37,6.37,0,0,0,6,6.7h.8a6.38,6.38,0,0,0,6.8-5.9v-.8a6.45,6.45,0,0,0-6.1-6.7H186a6.48,6.48,0,0,0-6.8,6.1v.6"
    transform="translate(0 -178.9)" style="fill:#06df70"/>
  <path
    d="M1.7,236.9h17c4,0,7.1,1,9.2,2.9s3.1,4.7,3.1,8.4a10.55,10.55,0,0,1-1.2,5.5,9.83,9.83,0,0,1-3.6,3.7,14.84,14.84,0,0,1,4.2,1.4,8.14,8.14,0,0,1,2.8,2.4,8.92,8.92,0,0,1,1.5,3.1,15.68,15.68,0,0,1,.5,3.7,14.59,14.59,0,0,1-1.1,5.5,11.71,11.71,0,0,1-3,4,14,14,0,0,1-4.7,2.4,27.19,27.19,0,0,1-6.3.8H1.8V236.9Zm11.4,17.2h2.1q5.4,0,5.4-4.2t-5.4-4.2H13.1Zm0,17.9h2.5a13.38,13.38,0,0,0,6.2-1.1,3.86,3.86,0,0,0,1.9-3.5,3.73,3.73,0,0,0-1.9-3.6c-1.2-.7-3.3-1.1-6.2-1.1H13.1Zm23.8-6.4a14.68,14.68,0,0,1,1.3-6.2,15.16,15.16,0,0,1,3.7-5,18.09,18.09,0,0,1,5.7-3.3,21.9,21.9,0,0,1,14.3,0,18.09,18.09,0,0,1,5.7,3.3,14.83,14.83,0,0,1,3.8,5.1,16.32,16.32,0,0,1-.1,13,15.84,15.84,0,0,1-3.8,5.1,18.09,18.09,0,0,1-5.7,3.3,21.9,21.9,0,0,1-14.3,0,16.59,16.59,0,0,1-5.6-3.3,13.77,13.77,0,0,1-3.7-5.2,15.86,15.86,0,0,1-1.3-6.8m11.1.1a6.71,6.71,0,0,0,.6,2.8,10.71,10.71,0,0,0,1.5,2.2,8.55,8.55,0,0,0,2.2,1.5,7,7,0,0,0,5.2,0,6.62,6.62,0,0,0,2.2-1.5,8.55,8.55,0,0,0,1.5-2.2,6.26,6.26,0,0,0,.6-2.7,5.83,5.83,0,0,0-.6-2.6,10.71,10.71,0,0,0-1.5-2.2,8.55,8.55,0,0,0-2.2-1.5,7,7,0,0,0-5.2,0,6.62,6.62,0,0,0-2.2,1.5,8.55,8.55,0,0,0-1.5,2.2,5.42,5.42,0,0,0-.6,2.5m36-1.1L71.9,250.9H85.6l5.1,6.2,5.2-6.2h13.7L97.2,264.6l15,16.2h-14L90.6,272l-7.7,8.8H69Z"
    transform="translate(0 -178.9)" style="fill:#06df70"/>
</svg>
